<svg xmlns="http://www.w3.org/2000/svg" viewBox="0 0 50 50"><path style="line-height:normal;text-indent:0;text-align:start;text-decoration-line:none;text-decoration-style:solid;text-decoration-color:#000;text-transform:none;block-progression:tb;isolation:auto;mix-blend-mode:normal" d="M25 1c-6.105 0-11.402 3.448-14.096 8.49L5.707 4.293a1 1 0 0 0-.717-.303 1 1 0 0 0-.697 1.717l5.727 5.727 10.255 10.255 1.036 1.036 13.31 13.31 9.672 9.672a1 1 0 1 0 1.414-1.414L35.631 34.217C38.557 28.817 41 22.639 41 17c0-8.822-7.178-16-16-16zm0 11a5.997 5.997 0 1 1 .395 11.98l-6.375-6.375A5.997 5.997 0 0 1 25 12zM9.37 13.611A15.978 15.978 0 0 0 9 17c0 14.114 14.625 30.948 15.248 31.658A1 1 0 0 0 25 49c.31-.021.568-.128.758-.348.31-.36 4.09-4.785 7.808-10.843L9.37 13.61z" font-weight="400" font-family="sans-serif" white-space="normal" overflow="visible"/></svg>