<?xml version="1.0"?>
<svg xmlns="http://www.w3.org/2000/svg" viewBox="0 0 50 50">
    <path style="line-height:normal;text-indent:0;text-align:start;text-decoration-line:none;text-decoration-style:solid;text-decoration-color:#000;text-transform:none;block-progression:tb;isolation:auto;mix-blend-mode:normal" d="M 25 1 C 18.895202 1 13.597658 4.4476138 10.904297 9.4902344 L 5.7070312 4.2929688 A 1.0001 1.0001 0 0 0 4.9902344 3.9902344 A 1.0001 1.0001 0 0 0 4.2929688 5.7070312 L 10.019531 11.433594 L 20.275391 21.689453 L 21.310547 22.724609 L 34.621094 36.035156 L 44.292969 45.707031 A 1.0001 1.0001 0 1 0 45.707031 44.292969 L 35.630859 34.216797 C 38.557183 28.817518 41 22.63937 41 17 C 41 8.178 33.822 1 25 1 z M 25 12 C 28.313 12 31 14.687 31 18 C 31 21.179804 28.522826 23.776296 25.394531 23.980469 L 19.019531 17.605469 C 19.223704 14.477174 21.820196 12 25 12 z M 9.3691406 13.611328 C 9.1321406 14.705328 9 15.837 9 17 C 9 31.114 23.625047 47.948203 24.248047 48.658203 C 24.438047 48.875203 24.712 49 25 49 C 25.31 48.979 25.567813 48.872344 25.757812 48.652344 C 26.067812 48.292344 29.848406 43.866594 33.566406 37.808594 L 9.3691406 13.611328 z" font-weight="400" font-family="sans-serif" white-space="normal" overflow="visible"/>
</svg>
